<?xml version="1.0" encoding="utf-8"?>
<!-- Generator: Adobe Illustrator 21.0.0, SVG Export Plug-In . SVG Version: 6.00 Build 0)  -->
<svg version="1.1" id="Capa_1" xmlns="http://www.w3.org/2000/svg" xmlns:xlink="http://www.w3.org/1999/xlink" x="0px" y="0px"
	 viewBox="0 0 369 369.9" style="enable-background:new 0 0 369 369.9;" xml:space="preserve">
<style type="text/css">
	.st0{fill:#FFFFFF;}
	.st1{fill:#EA932A;}
</style>
<circle class="st0" cx="184.5" cy="185.4" r="184.5"/>
<g>
	<path class="st1" d="M279.4,114.9c-4.1-5-10.3-7.8-16.8-7.8H122.5c-4,0-7.8,1.1-11.1,3.2l-7.2-25c-1.2-4.1-4.9-6.9-9.1-6.9h-11
		H63.3c-4,0-7.2,3.2-7.2,7.2v0.8c0,4,3.2,7.2,7.2,7.2h27.2l13.9,49.2l19.1,67.8c-10.9,2.7-19,12.6-19,24.3c0,13.2,10.3,24.1,23.4,25
		c-1.1,3.1-1.6,6.6-1.3,10.1c0.9,12,10.7,21.6,22.7,22.4c14.3,1,26.2-10.4,26.2-24.4c0-2.8-0.5-5.5-1.4-8.1h28.7
		c-1.2,3.3-1.6,7.1-1.2,10.9c1.3,11.6,10.9,20.7,22.6,21.6c14.3,1,26.3-10.3,26.3-24.4c0-13.6-11.3-24.5-24.9-24.5h-95.7
		c-4.7,0-8.6-3.6-8.8-8.2c-0.2-4.9,3.7-8.9,8.6-8.9H144h78h21.9c9.7,0,18.2-6.6,20.6-16.1l19-76.7
		C285.1,126.9,283.6,120.2,279.4,114.9z M226.1,259.8c4.4,0,8.1,3.6,8.1,8.1s-3.6,8.1-8.1,8.1s-8.1-3.6-8.1-8.1
		S221.6,259.8,226.1,259.8z M151.2,259.8c4.4,0,8.1,3.6,8.1,8.1s-3.6,8.1-8.1,8.1c-4.4,0-8.1-3.6-8.1-8.1
		C143.1,263.4,146.7,259.8,151.2,259.8z M121.6,142.6l-3.7-13c-0.6-2,0.2-3.4,0.8-4.1c0.5-0.7,1.7-1.9,3.8-1.9h15.4l4.2,19H121.6
		L121.6,142.6L121.6,142.6z M126.2,159h19.4l3.9,17.6h-18.3L126.2,159z M144,209.7c-2.1,0-4-1.4-4.6-3.5l-3.7-13.2H153l3.7,16.6
		L144,209.7L144,209.7L144,209.7z M185.1,209.7h-11.6l-3.7-16.6H185L185.1,209.7L185.1,209.7z M185.1,176.6h-18.9l-3.9-17.6H185
		L185.1,176.6L185.1,176.6z M185.1,142.6h-26.3l-4.2-19h30.5V142.6z M214.5,209.7h-13v-16.6H218L214.5,209.7z M221.5,176.6h-19.9
		V159h23.7L221.5,176.6z M201.6,142.6v-19h31.1l-4,19H201.6z M248.6,206.2c-0.5,2.1-2.4,3.6-4.6,3.6h-12.6l3.5-16.6h17L248.6,206.2z
		 M255.9,176.6h-17.6L242,159h18.2L255.9,176.6z M267.6,129.5l-3.3,13.1h-18.9l4-19h13.5c2,0,3.2,1.1,3.7,1.8
		C267.2,126.1,268.1,127.5,267.6,129.5z"/>
</g>
</svg>
